<svg width="111" height="24" viewBox="0 0 111 24" fill="none" xmlns="http://www.w3.org/2000/svg">
<g clip-path="url(#clip0_382_119)">
<path d="M39.577 2.24963C33.7089 2.24963 30.9746 5.11713 30.3567 9.74952L34.9003 10.3674C35.385 7.36672 36.8409 6.21973 39.4013 6.21973C42.2688 6.21973 43.4158 7.76447 43.4158 10.5876V11.4256H37.2387C32.0328 11.4256 29.7388 14.1618 29.7388 17.9543C29.7388 21.7467 32.4305 23.8668 36.2674 23.8668C39.8416 23.8668 42.3557 21.9262 43.327 18.2188H43.4158V23.4247H48.137V10.545C48.137 5.25033 45.5784 2.25148 39.577 2.25148V2.24963ZM43.4158 15.6177C43.4158 18.1319 41.2975 19.9855 38.0342 19.9855C35.3424 19.9855 34.4174 18.6609 34.4174 17.205C34.4174 15.7491 35.6532 14.9554 37.9472 14.9554H43.4176V15.6177H43.4158Z" fill="white"/>
<path d="M85.7659 8.64688H85.7215C84.7946 4.36784 82.4562 2.11825 78.3104 2.1608C73.1045 2.1164 70.1482 6.26409 70.1482 13.1461C70.1482 20.0281 72.9269 24 78.3104 24C82.3249 24 84.7521 21.7504 85.6789 17.5583H85.7677V23.4265H90.5333V0H85.7677V8.64688H85.7659ZM85.7659 13.2793C85.7659 17.3826 83.6476 19.6766 80.251 19.6766C76.5455 19.6766 74.8675 17.2938 74.8675 13.1479C74.8675 9.00208 76.6324 6.39729 80.251 6.39729C83.6476 6.39729 85.7659 8.95583 85.7659 12.9278V13.2811V13.2793Z" fill="white"/>
<path d="M102.44 2.24963C96.5717 2.24963 93.8374 5.11713 93.2195 9.74952L97.7631 10.3674C98.2478 7.36672 99.7037 6.21973 102.264 6.21973C105.132 6.21973 106.279 7.76447 106.279 10.5876V11.4256H100.101C94.8956 11.4256 92.6016 14.1618 92.6016 17.9543C92.6016 21.7467 95.2933 23.8668 99.1302 23.8668C102.704 23.8668 105.219 21.9262 106.19 18.2188H106.279V23.4247H111V10.545C111 5.25033 108.441 2.25148 102.44 2.25148V2.24963ZM106.279 15.6177C106.279 18.1319 104.16 19.9855 100.897 19.9855C98.2052 19.9855 97.2802 18.6609 97.2802 17.205C97.2802 15.7491 98.516 14.9554 100.81 14.9554H106.28V15.6177H106.279Z" fill="white"/>
<path d="M50.2793 9.80504C50.2793 12.8927 51.9554 15.0997 55.0449 16.0691L55.3982 16.1579C55.5555 16.2042 55.7183 16.2449 55.8811 16.2837C52.564 17.2494 50.2885 19.7377 49.6133 23.434H54.131C54.8284 21.1714 56.6044 19.8209 59.2092 19.8209C61.814 19.8209 63.5752 21.1714 64.2819 23.434H68.7644C68.0892 19.7395 65.8193 17.2494 62.5207 16.2837C65.8822 15.6066 67.6637 13.8399 67.6637 11.0408C67.6637 8.24179 65.7231 7.15769 63.1627 6.67299V6.62859C64.6186 6.71739 65.6343 6.71739 66.648 6.71739H69.3398V2.70105H59.1926C53.5889 2.70105 50.2811 5.25959 50.2811 9.80504H50.2793ZM63.5586 10.0696C63.5586 12.1878 62.2784 13.4662 59.015 13.4662C55.7516 13.4662 54.5602 12.1434 54.5602 10.0696C54.5602 7.99574 55.796 6.62859 58.9724 6.62859C62.1489 6.62859 63.5604 7.90879 63.5604 10.0696H63.5586Z" fill="white"/>
<path d="M13.9786 17.9338H13.8694L6.55269 2.7583H0V23.519H5.09674V10.6652H5.20589L11.3941 23.358H16.2726L22.4978 10.6652H22.607V23.519H27.7037V2.7583H21.1862L13.9786 17.9338Z" fill="white"/>
</g>
<defs>
<clipPath id="clip0_382_119">
<rect width="111" height="24" fill="white"/>
</clipPath>
</defs>
</svg>
